<svg width="790" height="658" viewBox="0 0 790 658" fill="none" xmlns="http://www.w3.org/2000/svg">
<g clip-path="url(#clip0)">
<path d="M260.5 420.2L212.9 392.7" stroke="#FF0000" stroke-width="2.8346" stroke-linecap="round" stroke-linejoin="round"/>
<path d="M184.2 287.9L184.1 342.8" stroke="#FF0000" stroke-width="2.8346" stroke-linecap="round" stroke-linejoin="round"/>
<path d="M31.4 376.1L107.8 420.1" stroke="black" stroke-width="0.9921" stroke-linecap="round" stroke-linejoin="round"/>
<path d="M336.9 287.9L554.5 162.2" stroke="black" stroke-width="0.9921" stroke-linecap="round" stroke-linejoin="round"/>
<path d="M107.8 508.3V420.1" stroke="black" stroke-width="0.9921" stroke-linecap="round" stroke-linejoin="round"/>
<path d="M107.8 420.1L212.9 359.4" stroke="black" stroke-width="0.9921" stroke-linecap="round" stroke-linejoin="round"/>
<path d="M235.1 493.6L311.4 537.7" stroke="black" stroke-width="0.9921" stroke-linecap="round" stroke-linejoin="round"/>
<path d="M311.4 625.9V537.7" stroke="black" stroke-width="0.9921" stroke-linecap="round" stroke-linejoin="round"/>
<path d="M212.9 359.5V359.4" stroke="black" stroke-width="0.9921" stroke-linecap="round" stroke-linejoin="round"/>
<path d="M540.5 405.4L758.2 279.8" stroke="black" stroke-width="0.9921" stroke-linecap="round" stroke-linejoin="round"/>
<path d="M311.4 537.7L464.2 449.5" stroke="black" stroke-width="0.9921" stroke-linecap="round" stroke-linejoin="round"/>
<path d="M31.4 464.2V376.1" stroke="black" stroke-width="2.8346" stroke-linecap="round" stroke-linejoin="round"/>
<path d="M478.2 118.1L336.9 199.7" stroke="black" stroke-width="2.8346" stroke-linecap="round" stroke-linejoin="round"/>
<path d="M554.5 162.2L478.2 118.1" stroke="black" stroke-width="2.8346" stroke-linecap="round" stroke-linejoin="round"/>
<path d="M554.5 250.4V162.2" stroke="black" stroke-width="2.8346" stroke-linecap="round" stroke-linejoin="round"/>
<path d="M540.5 493.6L542 492.8L758.2 368" stroke="black" stroke-width="2.8346" stroke-linecap="round" stroke-linejoin="round"/>
<path d="M311.4 625.9L464.2 537.7" stroke="black" stroke-width="2.8346" stroke-linecap="round" stroke-linejoin="round"/>
<path d="M681.8 235.7L464.2 361.3" stroke="black" stroke-width="2.8346" stroke-linecap="round" stroke-linejoin="round"/>
<path d="M758.2 368V279.8" stroke="black" stroke-width="2.8346" stroke-linecap="round" stroke-linejoin="round"/>
<path d="M758.2 279.8L681.8 235.7" stroke="black" stroke-width="2.8346" stroke-linecap="round" stroke-linejoin="round"/>
<path d="M235.1 581.8V493.6" stroke="black" stroke-width="2.8346" stroke-linecap="round" stroke-linejoin="round"/>
<path d="M235.1 581.8L311.4 625.9" stroke="black" stroke-width="2.8346" stroke-linecap="round" stroke-linejoin="round"/>
<path d="M413.3 331.9L554.5 250.4" stroke="black" stroke-width="2.8346" stroke-linecap="round" stroke-linejoin="round"/>
<path d="M31.4 464.2L107.8 508.3" stroke="black" stroke-width="2.8346" stroke-linecap="round" stroke-linejoin="round"/>
<path d="M212.9 447.6V359.5" stroke="black" stroke-width="2.8346" stroke-linecap="round" stroke-linejoin="round"/>
<path d="M136.6 315.4L212.9 359.4" stroke="black" stroke-width="2.8346" stroke-linecap="round" stroke-linejoin="round"/>
<path d="M136.5 315.4L31.4 376.1" stroke="black" stroke-width="2.8346" stroke-linecap="round" stroke-linejoin="round"/>
<path d="M107.8 508.3L212.9 447.6" stroke="black" stroke-width="2.8346" stroke-linecap="round" stroke-linejoin="round"/>
<path d="M336.9 287.9V199.7" stroke="#FF0000" stroke-width="2.8346" stroke-linecap="round" stroke-linejoin="round"/>
<path d="M413.3 332L336.9 287.9" stroke="#FF0000" stroke-width="2.8346" stroke-linecap="round" stroke-linejoin="round"/>
<path d="M387.8 405.4L464.2 449.5" stroke="#FF0000" stroke-width="2.8346" stroke-linecap="round" stroke-linejoin="round"/>
<path d="M464.2 449.5V537.7" stroke="#FF0000" stroke-width="2.8346" stroke-linecap="round" stroke-linejoin="round"/>
<path d="M260.5 420.1L311.4 449.5" stroke="#FF0000" stroke-width="2.8346" stroke-linecap="round" stroke-linejoin="round"/>
<path d="M184.2 287.9V75.5" stroke="#FF0000" stroke-width="2.8346" stroke-linecap="round" stroke-linejoin="round"/>
<path d="M336.9 199.7V75.5" stroke="#FF0000" stroke-width="2.8346" stroke-linecap="round" stroke-linejoin="round"/>
<path d="M260.5 31.4L184.2 75.5" stroke="#FF0000" stroke-width="2.8346" stroke-linecap="round" stroke-linejoin="round"/>
<path d="M336.9 75.5L260.5 31.4" stroke="#FF0000" stroke-width="2.8346" stroke-linecap="round" stroke-linejoin="round"/>
<path d="M540.5 405.4V493.6" stroke="#FF0000" stroke-width="2.8346" stroke-linecap="round" stroke-linejoin="round"/>
<path d="M464.2 537.7L540.5 493.6" stroke="#FF0000" stroke-width="2.8346" stroke-linecap="round" stroke-linejoin="round"/>
<path d="M464.2 361.4L413.3 332" stroke="#FF0000" stroke-width="2.8346" stroke-linecap="round" stroke-linejoin="round"/>
<path d="M540.5 405.4L464.2 361.4" stroke="#FF0000" stroke-width="2.8346" stroke-linecap="round" stroke-linejoin="round"/>
<path d="M336.9 287.9L260.5 332" stroke="#FF0000" stroke-width="0.9921" stroke-linecap="round" stroke-linejoin="round"/>
<path d="M260.5 332L387.8 405.4" stroke="#FF0000" stroke-width="0.9921" stroke-linecap="round" stroke-linejoin="round"/>
<path d="M260.5 119.6L336.9 75.5" stroke="#FF0000" stroke-width="0.9921" stroke-linecap="round" stroke-linejoin="round"/>
<path d="M464.2 449.5L540.5 405.4" stroke="#FF0000" stroke-width="0.9921" stroke-linecap="round" stroke-linejoin="round"/>
<path d="M184.2 75.5L260.5 119.6" stroke="#FF0000" stroke-width="0.9921" stroke-linecap="round" stroke-linejoin="round"/>
<path d="M260.5 332V119.6" stroke="#FF0000" stroke-width="0.9921" stroke-linecap="round" stroke-linejoin="round"/>
<path d="M387.8 405.4L311.4 449.5" stroke="black" stroke-width="2.8346" stroke-linecap="round" stroke-linejoin="round"/>
<path d="M311.4 449.5L235.1 493.6" stroke="black" stroke-width="2.8346" stroke-linecap="round" stroke-linejoin="round"/>
</g>
<defs>
<clipPath id="clip0">
<rect x="30" y="30" width="729.6" height="597.3" fill="white"/>
</clipPath>
</defs>
</svg>
